<?xml version="1.0" encoding="UTF-8" standalone="no"?>
<svg
   height="277.00mm"
   viewBox="0.0 0.0 216.90 277.00"
   width="216.90mm"
   version="1.1"
   id="svg33"
   sodipodi:docname="SunsetLampv4.svg"
   inkscape:version="1.4 (e7c3feb1, 2024-10-09)"
   xml:space="preserve"
   xmlns:inkscape="http://www.inkscape.org/namespaces/inkscape"
   xmlns:sodipodi="http://sodipodi.sourceforge.net/DTD/sodipodi-0.dtd"
   xmlns="http://www.w3.org/2000/svg"
   xmlns:svg="http://www.w3.org/2000/svg"
   xmlns:rdf="http://www.w3.org/1999/02/22-rdf-syntax-ns#"
   xmlns:cc="http://creativecommons.org/ns#"
   xmlns:dc="http://purl.org/dc/elements/1.1/"><defs
     id="defs33" /><sodipodi:namedview
     id="namedview33"
     pagecolor="#ffffff"
     bordercolor="#000000"
     borderopacity="0.25"
     inkscape:showpageshadow="2"
     inkscape:pageopacity="0.0"
     inkscape:pagecheckerboard="0"
     inkscape:deskcolor="#d1d1d1"
     inkscape:document-units="mm"
     inkscape:zoom="0.66250259"
     inkscape:cx="269.43291"
     inkscape:cy="670.94077"
     inkscape:window-width="1472"
     inkscape:window-height="890"
     inkscape:window-x="0"
     inkscape:window-y="38"
     inkscape:window-maximized="0"
     inkscape:current-layer="svg33" /><!--
UniversalBox - Box with various options for different styles and lids

Created with Boxes.py (https://boxes.hackerspace-bamberg.de/)
Creation date: 2025-02-27 14:23:47
Command line (remove spaces between dashes): boxes UniversalBox - -top_edge=h - -bottom_edge=F - -x=125 - -y=70 - -h=50
Url: https://boxes.hackerspace-bamberg.de/UniversalBox?FingerJoint_style=rectangular&FingerJoint_surroundingspaces=2.0&FingerJoint_bottom_lip=0.0&FingerJoint_edge_width=1.0&FingerJoint_extra_length=0.0&FingerJoint_finger=2.0&FingerJoint_play=0.0&FingerJoint_space=2.0&FingerJoint_width=1.0&Stackable_angle=60&Stackable_bottom_stabilizers=0.0&Stackable_height=2.0&Stackable_holedistance=1.0&Stackable_width=4.0&Hinge_grip_percentage=0&Hinge_outset=0&Hinge_outset=1&Hinge_pinwidth=0.5&Hinge_axle=2.0&Hinge_grip_length=0&Hinge_hingestrength=1&CabinetHinge_bore=3.2&CabinetHinge_eyes_per_hinge=5&CabinetHinge_hinges=2&CabinetHinge_style=inside&CabinetHinge_eye=1.5&CabinetHinge_play=0.05&CabinetHinge_spacing=2.0&SlideOnLid_hole_width=0&SlideOnLid_second_pin=0&SlideOnLid_second_pin=1&SlideOnLid_spring=both&SlideOnLid_style=rectangular&SlideOnLid_surroundingspaces=2.0&SlideOnLid_bottom_lip=0.0&SlideOnLid_edge_width=1.0&SlideOnLid_extra_length=0.0&SlideOnLid_finger=3.0&SlideOnLid_play=0.05&SlideOnLid_space=2.0&SlideOnLid_width=1.0&Click_angle=5.0&Click_bottom_radius=0.1&Click_depth=3.0&RoundedTriangleEdge_height=50.0&RoundedTriangleEdge_r_hole=2.0&RoundedTriangleEdge_radius=30.0&RoundedTriangleEdge_outset=1.0&Mounting_d_head=6.5&Mounting_d_shaft=3.0&Mounting_margin=0.125&Mounting_num=2&Mounting_side=back&Mounting_style=straight+edge%2C+within&HandleEdge_height=20.0&HandleEdge_hole_height=75.0&HandleEdge_hole_width=40%3A40&HandleEdge_on_sides=0&HandleEdge_on_sides=1&HandleEdge_radius=10.0&HandleEdge_outset=1.0&Flex_stretch=1.05&Flex_connection=1.0&Flex_distance=0.5&Flex_width=5.0&Lid_handle=none&Lid_style=none&Lid_handle_height=8.0&Lid_height=4&Lid_play=0.1&top_edge=h&bottom_edge=F&x=125&y=70&h=50&outside=0&outside=1&vertical_edges=finger+joints&thickness=3.0&format=svg&tabs=0.0&qr_code=0&debug=0&labels=0&labels=1&reference=100.0&inner_corners=loop&burn=0.1&language=en&render=2
Url short: https://boxes.hackerspace-bamberg.de/UniversalBox?top_edge=h&bottom_edge=F&x=125&y=70&h=50
SettingsUrl: https://boxes.hackerspace-bamberg.de/UniversalBox?FingerJoint_style=rectangular&FingerJoint_surroundingspaces=2.0&FingerJoint_bottom_lip=0.0&FingerJoint_edge_width=1.0&FingerJoint_extra_length=0.0&FingerJoint_finger=2.0&FingerJoint_play=0.0&FingerJoint_space=2.0&FingerJoint_width=1.0&Stackable_angle=60&Stackable_bottom_stabilizers=0.0&Stackable_height=2.0&Stackable_holedistance=1.0&Stackable_width=4.0&Hinge_grip_percentage=0&Hinge_outset=0&Hinge_outset=1&Hinge_pinwidth=0.5&Hinge_axle=2.0&Hinge_grip_length=0&Hinge_hingestrength=1&CabinetHinge_bore=3.2&CabinetHinge_eyes_per_hinge=5&CabinetHinge_hinges=2&CabinetHinge_style=inside&CabinetHinge_eye=1.5&CabinetHinge_play=0.05&CabinetHinge_spacing=2.0&SlideOnLid_hole_width=0&SlideOnLid_second_pin=0&SlideOnLid_second_pin=1&SlideOnLid_spring=both&SlideOnLid_style=rectangular&SlideOnLid_surroundingspaces=2.0&SlideOnLid_bottom_lip=0.0&SlideOnLid_edge_width=1.0&SlideOnLid_extra_length=0.0&SlideOnLid_finger=3.0&SlideOnLid_play=0.05&SlideOnLid_space=2.0&SlideOnLid_width=1.0&Click_angle=5.0&Click_bottom_radius=0.1&Click_depth=3.0&RoundedTriangleEdge_height=50.0&RoundedTriangleEdge_r_hole=2.0&RoundedTriangleEdge_radius=30.0&RoundedTriangleEdge_outset=1.0&Mounting_d_head=6.5&Mounting_d_shaft=3.0&Mounting_margin=0.125&Mounting_num=2&Mounting_side=back&Mounting_style=straight+edge%2C+within&HandleEdge_height=20.0&HandleEdge_hole_height=75.0&HandleEdge_hole_width=40%3A40&HandleEdge_on_sides=0&HandleEdge_on_sides=1&HandleEdge_radius=10.0&HandleEdge_outset=1.0&Flex_stretch=1.05&Flex_connection=1.0&Flex_distance=0.5&Flex_width=5.0&Lid_handle=none&Lid_style=none&Lid_handle_height=8.0&Lid_height=4&Lid_play=0.1&top_edge=h&bottom_edge=F&x=125&y=70&h=50&outside=0&outside=1&vertical_edges=finger+joints&thickness=3.0&format=svg&tabs=0.0&qr_code=0&debug=0&labels=0&labels=1&reference=100.0&inner_corners=loop&burn=0.1&language=en&render=2
SettingsUrl short: https://boxes.hackerspace-bamberg.de/UniversalBox?top_edge=h&bottom_edge=F&x=125&y=70&h=50
--><title
     id="title1">UniversalBox</title><metadata
     id="metadata1"><rdf:RDF><cc:Work><dc:title>UniversalBox</dc:title><dc:date>2025-02-27 14:23:47</dc:date><dc:source>https://boxes.hackerspace-bamberg.de/UniversalBox?FingerJoint_style=rectangular&amp;FingerJoint_surroundingspaces=2.0&amp;FingerJoint_bottom_lip=0.0&amp;FingerJoint_edge_width=1.0&amp;FingerJoint_extra_length=0.0&amp;FingerJoint_finger=2.0&amp;FingerJoint_play=0.0&amp;FingerJoint_space=2.0&amp;FingerJoint_width=1.0&amp;Stackable_angle=60&amp;Stackable_bottom_stabilizers=0.0&amp;Stackable_height=2.0&amp;Stackable_holedistance=1.0&amp;Stackable_width=4.0&amp;Hinge_grip_percentage=0&amp;Hinge_outset=0&amp;Hinge_outset=1&amp;Hinge_pinwidth=0.5&amp;Hinge_axle=2.0&amp;Hinge_grip_length=0&amp;Hinge_hingestrength=1&amp;CabinetHinge_bore=3.2&amp;CabinetHinge_eyes_per_hinge=5&amp;CabinetHinge_hinges=2&amp;CabinetHinge_style=inside&amp;CabinetHinge_eye=1.5&amp;CabinetHinge_play=0.05&amp;CabinetHinge_spacing=2.0&amp;SlideOnLid_hole_width=0&amp;SlideOnLid_second_pin=0&amp;SlideOnLid_second_pin=1&amp;SlideOnLid_spring=both&amp;SlideOnLid_style=rectangular&amp;SlideOnLid_surroundingspaces=2.0&amp;SlideOnLid_bottom_lip=0.0&amp;SlideOnLid_edge_width=1.0&amp;SlideOnLid_extra_length=0.0&amp;SlideOnLid_finger=3.0&amp;SlideOnLid_play=0.05&amp;SlideOnLid_space=2.0&amp;SlideOnLid_width=1.0&amp;Click_angle=5.0&amp;Click_bottom_radius=0.1&amp;Click_depth=3.0&amp;RoundedTriangleEdge_height=50.0&amp;RoundedTriangleEdge_r_hole=2.0&amp;RoundedTriangleEdge_radius=30.0&amp;RoundedTriangleEdge_outset=1.0&amp;Mounting_d_head=6.5&amp;Mounting_d_shaft=3.0&amp;Mounting_margin=0.125&amp;Mounting_num=2&amp;Mounting_side=back&amp;Mounting_style=straight+edge%2C+within&amp;HandleEdge_height=20.0&amp;HandleEdge_hole_height=75.0&amp;HandleEdge_hole_width=40%3A40&amp;HandleEdge_on_sides=0&amp;HandleEdge_on_sides=1&amp;HandleEdge_radius=10.0&amp;HandleEdge_outset=1.0&amp;Flex_stretch=1.05&amp;Flex_connection=1.0&amp;Flex_distance=0.5&amp;Flex_width=5.0&amp;Lid_handle=none&amp;Lid_style=none&amp;Lid_handle_height=8.0&amp;Lid_height=4&amp;Lid_play=0.1&amp;top_edge=h&amp;bottom_edge=F&amp;x=125&amp;y=70&amp;h=50&amp;outside=0&amp;outside=1&amp;vertical_edges=finger+joints&amp;thickness=3.0&amp;format=svg&amp;tabs=0.0&amp;qr_code=0&amp;debug=0&amp;labels=0&amp;labels=1&amp;reference=100.0&amp;inner_corners=loop&amp;burn=0.1&amp;language=en&amp;render=2</dc:source><dc:source>https://boxes.hackerspace-bamberg.de/UniversalBox?top_edge=h&amp;bottom_edge=F&amp;x=125&amp;y=70&amp;h=50</dc:source><dc:description>Box with various options for different styles and lids

Created with Boxes.py (https://boxes.hackerspace-bamberg.de/)
Command line: boxes UniversalBox --FingerJoint_style=rectangular --FingerJoint_surroundingspaces=2.0 --FingerJoint_bottom_lip=0.0 --FingerJoint_edge_width=1.0 --FingerJoint_extra_length=0.0 --FingerJoint_finger=2.0 --FingerJoint_play=0.0 --FingerJoint_space=2.0 --FingerJoint_width=1.0 --Stackable_angle=60 --Stackable_bottom_stabilizers=0.0 --Stackable_height=2.0 --Stackable_holedistance=1.0 --Stackable_width=4.0 --Hinge_grip_percentage=0 --Hinge_outset=0 --Hinge_outset=1 --Hinge_pinwidth=0.5 --Hinge_axle=2.0 --Hinge_grip_length=0 --Hinge_hingestrength=1 --CabinetHinge_bore=3.2 --CabinetHinge_eyes_per_hinge=5 --CabinetHinge_hinges=2 --CabinetHinge_style=inside --CabinetHinge_eye=1.5 --CabinetHinge_play=0.05 --CabinetHinge_spacing=2.0 --SlideOnLid_hole_width=0 --SlideOnLid_second_pin=0 --SlideOnLid_second_pin=1 --SlideOnLid_spring=both --SlideOnLid_style=rectangular --SlideOnLid_surroundingspaces=2.0 --SlideOnLid_bottom_lip=0.0 --SlideOnLid_edge_width=1.0 --SlideOnLid_extra_length=0.0 --SlideOnLid_finger=3.0 --SlideOnLid_play=0.05 --SlideOnLid_space=2.0 --SlideOnLid_width=1.0 --Click_angle=5.0 --Click_bottom_radius=0.1 --Click_depth=3.0 --RoundedTriangleEdge_height=50.0 --RoundedTriangleEdge_r_hole=2.0 --RoundedTriangleEdge_radius=30.0 --RoundedTriangleEdge_outset=1.0 --Mounting_d_head=6.5 --Mounting_d_shaft=3.0 --Mounting_margin=0.125 --Mounting_num=2 --Mounting_side=back '--Mounting_style=straight edge, within' --HandleEdge_height=20.0 --HandleEdge_hole_height=75.0 --HandleEdge_hole_width=40:40 --HandleEdge_on_sides=0 --HandleEdge_on_sides=1 --HandleEdge_radius=10.0 --HandleEdge_outset=1.0 --Flex_stretch=1.05 --Flex_connection=1.0 --Flex_distance=0.5 --Flex_width=5.0 --Lid_handle=none --Lid_style=none --Lid_handle_height=8.0 --Lid_height=4 --Lid_play=0.1 --top_edge=h --bottom_edge=F --x=125 --y=70 --h=50 --outside=0 --outside=1 '--vertical_edges=finger joints' --thickness=3.0 --format=svg --tabs=0.0 --qr_code=0 --debug=0 --labels=0 --labels=1 --reference=100.0 --inner_corners=loop --burn=0.1
Command line short: boxes UniversalBox --top_edge=h --bottom_edge=F --x=125 --y=70 --h=50
Url: https://boxes.hackerspace-bamberg.de/UniversalBox?FingerJoint_style=rectangular&amp;FingerJoint_surroundingspaces=2.0&amp;FingerJoint_bottom_lip=0.0&amp;FingerJoint_edge_width=1.0&amp;FingerJoint_extra_length=0.0&amp;FingerJoint_finger=2.0&amp;FingerJoint_play=0.0&amp;FingerJoint_space=2.0&amp;FingerJoint_width=1.0&amp;Stackable_angle=60&amp;Stackable_bottom_stabilizers=0.0&amp;Stackable_height=2.0&amp;Stackable_holedistance=1.0&amp;Stackable_width=4.0&amp;Hinge_grip_percentage=0&amp;Hinge_outset=0&amp;Hinge_outset=1&amp;Hinge_pinwidth=0.5&amp;Hinge_axle=2.0&amp;Hinge_grip_length=0&amp;Hinge_hingestrength=1&amp;CabinetHinge_bore=3.2&amp;CabinetHinge_eyes_per_hinge=5&amp;CabinetHinge_hinges=2&amp;CabinetHinge_style=inside&amp;CabinetHinge_eye=1.5&amp;CabinetHinge_play=0.05&amp;CabinetHinge_spacing=2.0&amp;SlideOnLid_hole_width=0&amp;SlideOnLid_second_pin=0&amp;SlideOnLid_second_pin=1&amp;SlideOnLid_spring=both&amp;SlideOnLid_style=rectangular&amp;SlideOnLid_surroundingspaces=2.0&amp;SlideOnLid_bottom_lip=0.0&amp;SlideOnLid_edge_width=1.0&amp;SlideOnLid_extra_length=0.0&amp;SlideOnLid_finger=3.0&amp;SlideOnLid_play=0.05&amp;SlideOnLid_space=2.0&amp;SlideOnLid_width=1.0&amp;Click_angle=5.0&amp;Click_bottom_radius=0.1&amp;Click_depth=3.0&amp;RoundedTriangleEdge_height=50.0&amp;RoundedTriangleEdge_r_hole=2.0&amp;RoundedTriangleEdge_radius=30.0&amp;RoundedTriangleEdge_outset=1.0&amp;Mounting_d_head=6.5&amp;Mounting_d_shaft=3.0&amp;Mounting_margin=0.125&amp;Mounting_num=2&amp;Mounting_side=back&amp;Mounting_style=straight+edge%2C+within&amp;HandleEdge_height=20.0&amp;HandleEdge_hole_height=75.0&amp;HandleEdge_hole_width=40%3A40&amp;HandleEdge_on_sides=0&amp;HandleEdge_on_sides=1&amp;HandleEdge_radius=10.0&amp;HandleEdge_outset=1.0&amp;Flex_stretch=1.05&amp;Flex_connection=1.0&amp;Flex_distance=0.5&amp;Flex_width=5.0&amp;Lid_handle=none&amp;Lid_style=none&amp;Lid_handle_height=8.0&amp;Lid_height=4&amp;Lid_play=0.1&amp;top_edge=h&amp;bottom_edge=F&amp;x=125&amp;y=70&amp;h=50&amp;outside=0&amp;outside=1&amp;vertical_edges=finger+joints&amp;thickness=3.0&amp;format=svg&amp;tabs=0.0&amp;qr_code=0&amp;debug=0&amp;labels=0&amp;labels=1&amp;reference=100.0&amp;inner_corners=loop&amp;burn=0.1&amp;language=en&amp;render=2
Url short: https://boxes.hackerspace-bamberg.de/UniversalBox?top_edge=h&amp;bottom_edge=F&amp;x=125&amp;y=70&amp;h=50
SettingsUrl: https://boxes.hackerspace-bamberg.de/UniversalBox?FingerJoint_style=rectangular&amp;FingerJoint_surroundingspaces=2.0&amp;FingerJoint_bottom_lip=0.0&amp;FingerJoint_edge_width=1.0&amp;FingerJoint_extra_length=0.0&amp;FingerJoint_finger=2.0&amp;FingerJoint_play=0.0&amp;FingerJoint_space=2.0&amp;FingerJoint_width=1.0&amp;Stackable_angle=60&amp;Stackable_bottom_stabilizers=0.0&amp;Stackable_height=2.0&amp;Stackable_holedistance=1.0&amp;Stackable_width=4.0&amp;Hinge_grip_percentage=0&amp;Hinge_outset=0&amp;Hinge_outset=1&amp;Hinge_pinwidth=0.5&amp;Hinge_axle=2.0&amp;Hinge_grip_length=0&amp;Hinge_hingestrength=1&amp;CabinetHinge_bore=3.2&amp;CabinetHinge_eyes_per_hinge=5&amp;CabinetHinge_hinges=2&amp;CabinetHinge_style=inside&amp;CabinetHinge_eye=1.5&amp;CabinetHinge_play=0.05&amp;CabinetHinge_spacing=2.0&amp;SlideOnLid_hole_width=0&amp;SlideOnLid_second_pin=0&amp;SlideOnLid_second_pin=1&amp;SlideOnLid_spring=both&amp;SlideOnLid_style=rectangular&amp;SlideOnLid_surroundingspaces=2.0&amp;SlideOnLid_bottom_lip=0.0&amp;SlideOnLid_edge_width=1.0&amp;SlideOnLid_extra_length=0.0&amp;SlideOnLid_finger=3.0&amp;SlideOnLid_play=0.05&amp;SlideOnLid_space=2.0&amp;SlideOnLid_width=1.0&amp;Click_angle=5.0&amp;Click_bottom_radius=0.1&amp;Click_depth=3.0&amp;RoundedTriangleEdge_height=50.0&amp;RoundedTriangleEdge_r_hole=2.0&amp;RoundedTriangleEdge_radius=30.0&amp;RoundedTriangleEdge_outset=1.0&amp;Mounting_d_head=6.5&amp;Mounting_d_shaft=3.0&amp;Mounting_margin=0.125&amp;Mounting_num=2&amp;Mounting_side=back&amp;Mounting_style=straight+edge%2C+within&amp;HandleEdge_height=20.0&amp;HandleEdge_hole_height=75.0&amp;HandleEdge_hole_width=40%3A40&amp;HandleEdge_on_sides=0&amp;HandleEdge_on_sides=1&amp;HandleEdge_radius=10.0&amp;HandleEdge_outset=1.0&amp;Flex_stretch=1.05&amp;Flex_connection=1.0&amp;Flex_distance=0.5&amp;Flex_width=5.0&amp;Lid_handle=none&amp;Lid_style=none&amp;Lid_handle_height=8.0&amp;Lid_height=4&amp;Lid_play=0.1&amp;top_edge=h&amp;bottom_edge=F&amp;x=125&amp;y=70&amp;h=50&amp;outside=0&amp;outside=1&amp;vertical_edges=finger+joints&amp;thickness=3.0&amp;format=svg&amp;tabs=0.0&amp;qr_code=0&amp;debug=0&amp;labels=0&amp;labels=1&amp;reference=100.0&amp;inner_corners=loop&amp;burn=0.1&amp;language=en&amp;render=2
SettingsUrl short: https://boxes.hackerspace-bamberg.de/UniversalBox?top_edge=h&amp;bottom_edge=F&amp;x=125&amp;y=70&amp;h=50
</dc:description></cc:Work></rdf:RDF></metadata><g
     id="p-1"
     style="fill:none;stroke-linecap:round;stroke-linejoin:round;stroke:#ff00ff"><text
       dominant-baseline="hanging"
       font-size="4px"
       style="font-style:normal;font-weight:normal;font-family:'Apple Braille';display:none;fill:#ff0000;-inkscape-font-specification:'Apple Braille';font-stretch:normal;font-variant:normal;stroke:#ff00ff"
       text-anchor="middle"
       transform="translate(72.6,228.3)"
       id="text2">front</text><path
       d="M 13.100 255.300 H 21.600 C 21.655 255.300 21.700 255.255 21.700 255.200 V 252.300 C 21.700 252.200 21.600 252.300 21.700 252.300 H 27.500 C 27.600 252.300 27.500 252.200 27.500 252.300 V 255.200 C 27.500 255.255 27.545 255.300 27.600 255.300 H 33.600 C 33.655 255.300 33.700 255.255 33.700 255.200 V 252.300 C 33.700 252.200 33.600 252.300 33.700 252.300 H 39.500 C 39.600 252.300 39.500 252.200 39.500 252.300 V 255.200 C 39.500 255.255 39.545 255.300 39.600 255.300 H 45.600 C 45.655 255.300 45.700 255.255 45.700 255.200 V 252.300 C 45.700 252.200 45.600 252.300 45.700 252.300 H 51.500 C 51.600 252.300 51.500 252.200 51.500 252.300 V 255.200 C 51.500 255.255 51.545 255.300 51.600 255.300 H 57.600 C 57.655 255.300 57.700 255.255 57.700 255.200 V 252.300 C 57.700 252.200 57.600 252.300 57.700 252.300 H 63.500 C 63.600 252.300 63.500 252.200 63.500 252.300 V 255.200 C 63.500 255.255 63.545 255.300 63.600 255.300 H 69.600 C 69.655 255.300 69.700 255.255 69.700 255.200 V 252.300 C 69.700 252.200 69.600 252.300 69.700 252.300 H 75.500 C 75.600 252.300 75.500 252.200 75.500 252.300 V 255.200 C 75.500 255.255 75.545 255.300 75.600 255.300 H 81.600 C 81.655 255.300 81.700 255.255 81.700 255.200 V 252.300 C 81.700 252.200 81.600 252.300 81.700 252.300 H 87.500 C 87.600 252.300 87.500 252.200 87.500 252.300 V 255.200 C 87.500 255.255 87.545 255.300 87.600 255.300 H 93.600 C 93.655 255.300 93.700 255.255 93.700 255.200 V 252.300 C 93.700 252.200 93.600 252.300 93.700 252.300 H 99.500 C 99.600 252.300 99.500 252.200 99.500 252.300 V 255.200 C 99.500 255.255 99.545 255.300 99.600 255.300 H 105.600 C 105.655 255.300 105.700 255.255 105.700 255.200 V 252.300 C 105.700 252.200 105.600 252.300 105.700 252.300 H 111.500 C 111.600 252.300 111.500 252.200 111.500 252.300 V 255.200 C 111.500 255.255 111.545 255.300 111.600 255.300 H 117.600 C 117.655 255.300 117.700 255.255 117.700 255.200 V 252.300 C 117.700 252.200 117.600 252.300 117.700 252.300 H 123.500 C 123.600 252.300 123.500 252.200 123.500 252.300 V 255.200 C 123.500 255.255 123.545 255.300 123.600 255.300 H 132.100 H 135.100 C 135.155 255.300 135.200 255.255 135.200 255.200 V 248.200 C 135.200 248.145 135.155 248.100 135.100 248.100 H 132.200 C 132.100 248.100 132.200 248.200 132.200 248.100 V 242.300 C 132.200 242.200 132.100 242.300 132.200 242.300 H 135.100 C 135.155 242.300 135.200 242.255 135.200 242.200 V 236.200 C 135.200 236.145 135.155 236.100 135.100 236.100 H 132.200 C 132.100 236.100 132.200 236.200 132.200 236.100 V 230.300 C 132.200 230.200 132.100 230.300 132.200 230.300 H 135.100 C 135.155 230.300 135.200 230.255 135.200 230.200 V 224.200 C 135.200 224.145 135.155 224.100 135.100 224.100 H 132.200 C 132.100 224.100 132.200 224.200 132.200 224.100 V 218.300 C 132.200 218.200 132.100 218.300 132.200 218.300 H 135.100 C 135.155 218.300 135.200 218.255 135.200 218.200 V 211.200 V 205.200 C 135.200 205.145 135.155 205.100 135.100 205.100 H 132.100 H 13.100 H 10.100 C 10.045 205.100 10.000 205.145 10.000 205.200 V 211.200 V 218.200 C 10.000 218.255 10.045 218.300 10.100 218.300 H 13.000 C 13.100 218.300 13.000 218.200 13.000 218.300 V 224.100 C 13.000 224.200 13.100 224.100 13.000 224.100 H 10.100 C 10.045 224.100 10.000 224.145 10.000 224.200 V 230.200 C 10.000 230.255 10.045 230.300 10.100 230.300 H 13.000 C 13.100 230.300 13.000 230.200 13.000 230.300 V 236.100 C 13.000 236.200 13.100 236.100 13.000 236.100 H 10.100 C 10.045 236.100 10.000 236.145 10.000 236.200 V 242.200 C 10.000 242.255 10.045 242.300 10.100 242.300 H 13.000 C 13.100 242.300 13.000 242.200 13.000 242.300 V 248.100 C 13.000 248.200 13.100 248.100 13.000 248.100 H 10.100 C 10.045 248.100 10.000 248.145 10.000 248.200 V 255.200 C 10.000 255.255 10.045 255.300 10.100 255.300 H 13.100"
       stroke="rgb(0,0,0)"
       stroke-width="0.20"
       id="path2"
       style="stroke:#ff00ff" /><path
       d="m 120.86844,217.0836 h 2.9 c 0.1,0 0,-0.1 0,0 v 2.8 c 0,0.1 0.1,0 0,0 h -5.8 c -0.1,0 0,0.1 0,0 v -2.8 c 0,-0.1 -0.1,0 0,0 z"
       stroke="#0000ff"
       stroke-width="0.2"
       id="path3"
       style="stroke:#ff00ff" /><path
       d="m 108.86844,217.0836 h 2.9 c 0.1,0 0,-0.1 0,0 v 2.8 c 0,0.1 0.1,0 0,0 h -5.8 c -0.1,0 0,0.1 0,0 v -2.8 c 0,-0.1 -0.1,0 0,0 z"
       stroke="#0000ff"
       stroke-width="0.2"
       id="path4"
       style="stroke:#ff00ff" /><path
       d="m 96.868439,217.0836 h 2.9 c 0.1,0 0,-0.1 0,0 v 2.8 c 0,0.1 0.1,0 0,0 h -5.8 c -0.1,0 0,0.1 0,0 v -2.8 c 0,-0.1 -0.1,0 0,0 z"
       stroke="#0000ff"
       stroke-width="0.2"
       id="path5"
       style="stroke:#ff00ff" /><path
       d="m 84.868439,217.0836 h 2.9 c 0.1,0 0,-0.1 0,0 v 2.8 c 0,0.1 0.1,0 0,0 h -5.8 c -0.1,0 0,0.1 0,0 v -2.8 c 0,-0.1 -0.1,0 0,0 z"
       stroke="#0000ff"
       stroke-width="0.2"
       id="path6"
       style="stroke:#ff00ff" /><path
       d="m 72.868439,217.0836 h 2.9 c 0.1,0 0,-0.1 0,0 v 2.8 c 0,0.1 0.1,0 0,0 h -5.8 c -0.1,0 0,0.1 0,0 v -2.8 c 0,-0.1 -0.1,0 0,0 z"
       stroke="#0000ff"
       stroke-width="0.2"
       id="path7"
       style="stroke:#ff00ff" /><path
       d="m 60.868439,217.0836 h 2.9 c 0.1,0 0,-0.1 0,0 v 2.8 c 0,0.1 0.1,0 0,0 h -5.8 c -0.1,0 0,0.1 0,0 v -2.8 c 0,-0.1 -0.1,0 0,0 z"
       stroke="#0000ff"
       stroke-width="0.2"
       id="path8"
       style="stroke:#ff00ff" /><path
       d="m 48.868439,217.0836 h 2.9 c 0.1,0 0,-0.1 0,0 v 2.8 c 0,0.1 0.1,0 0,0 h -5.8 c -0.1,0 0,0.1 0,0 v -2.8 c 0,-0.1 -0.1,0 0,0 z"
       stroke="#0000ff"
       stroke-width="0.2"
       id="path9"
       style="stroke:#ff00ff" /><path
       d="m 36.868439,217.0836 h 2.9 c 0.1,0 0,-0.1 0,0 v 2.8 c 0,0.1 0.1,0 0,0 h -5.8 c -0.1,0 0,0.1 0,0 v -2.8 c 0,-0.1 -0.1,0 0,0 z"
       stroke="#0000ff"
       stroke-width="0.2"
       id="path10"
       style="stroke:#ff00ff" /><path
       d="m 24.868439,217.0836 h 2.9 c 0.1,0 0,-0.1 0,0 v 2.8 c 0,0.1 0.1,0 0,0 h -5.8 c -0.1,0 0,0.1 0,0 v -2.8 c 0,-0.1 -0.1,0 0,0 z"
       stroke="#0000ff"
       stroke-width="0.2"
       id="path11"
       style="stroke:#ff00ff" /></g><g
     id="p-2"
     style="fill:none;stroke-linecap:round;stroke-linejoin:round;stroke:#ff00ff"><text
       dominant-baseline="hanging"
       font-size="4px"
       style="font-family:'Apple Braille';font-weight:normal;font-style:normal;fill:rgb(255, 0, 0);-inkscape-font-specification:'Apple Braille';font-stretch:normal;font-variant:normal;stroke:#ff00ff"
       text-anchor="middle"
       transform="matrix( 1.000 0.000 0.000 1.000 72.600 176.600 )"
       id="text11">back</text><path
       d="M 13.100 203.600 H 21.600 C 21.655 203.600 21.700 203.555 21.700 203.500 V 200.600 C 21.700 200.500 21.600 200.600 21.700 200.600 H 27.500 C 27.600 200.600 27.500 200.500 27.500 200.600 V 203.500 C 27.500 203.555 27.545 203.600 27.600 203.600 H 33.600 C 33.655 203.600 33.700 203.555 33.700 203.500 V 200.600 C 33.700 200.500 33.600 200.600 33.700 200.600 H 39.500 C 39.600 200.600 39.500 200.500 39.500 200.600 V 203.500 C 39.500 203.555 39.545 203.600 39.600 203.600 H 45.600 C 45.655 203.600 45.700 203.555 45.700 203.500 V 200.600 C 45.700 200.500 45.600 200.600 45.700 200.600 H 51.500 C 51.600 200.600 51.500 200.500 51.500 200.600 V 203.500 C 51.500 203.555 51.545 203.600 51.600 203.600 H 57.600 C 57.655 203.600 57.700 203.555 57.700 203.500 V 200.600 C 57.700 200.500 57.600 200.600 57.700 200.600 H 63.500 C 63.600 200.600 63.500 200.500 63.500 200.600 V 203.500 C 63.500 203.555 63.545 203.600 63.600 203.600 H 69.600 C 69.655 203.600 69.700 203.555 69.700 203.500 V 200.600 C 69.700 200.500 69.600 200.600 69.700 200.600 H 75.500 C 75.600 200.600 75.500 200.500 75.500 200.600 V 203.500 C 75.500 203.555 75.545 203.600 75.600 203.600 H 81.600 C 81.655 203.600 81.700 203.555 81.700 203.500 V 200.600 C 81.700 200.500 81.600 200.600 81.700 200.600 H 87.500 C 87.600 200.600 87.500 200.500 87.500 200.600 V 203.500 C 87.500 203.555 87.545 203.600 87.600 203.600 H 93.600 C 93.655 203.600 93.700 203.555 93.700 203.500 V 200.600 C 93.700 200.500 93.600 200.600 93.700 200.600 H 99.500 C 99.600 200.600 99.500 200.500 99.500 200.600 V 203.500 C 99.500 203.555 99.545 203.600 99.600 203.600 H 105.600 C 105.655 203.600 105.700 203.555 105.700 203.500 V 200.600 C 105.700 200.500 105.600 200.600 105.700 200.600 H 111.500 C 111.600 200.600 111.500 200.500 111.500 200.600 V 203.500 C 111.500 203.555 111.545 203.600 111.600 203.600 H 117.600 C 117.655 203.600 117.700 203.555 117.700 203.500 V 200.600 C 117.700 200.500 117.600 200.600 117.700 200.600 H 123.500 C 123.600 200.600 123.500 200.500 123.500 200.600 V 203.500 C 123.500 203.555 123.545 203.600 123.600 203.600 H 132.100 H 135.100 C 135.155 203.600 135.200 203.555 135.200 203.500 V 196.500 C 135.200 196.445 135.155 196.400 135.100 196.400 H 132.200 C 132.100 196.400 132.200 196.500 132.200 196.400 V 190.600 C 132.200 190.500 132.100 190.600 132.200 190.600 H 135.100 C 135.155 190.600 135.200 190.555 135.200 190.500 V 184.500 C 135.200 184.445 135.155 184.400 135.100 184.400 H 132.200 C 132.100 184.400 132.200 184.500 132.200 184.400 V 178.600 C 132.200 178.500 132.100 178.600 132.200 178.600 H 135.100 C 135.155 178.600 135.200 178.555 135.200 178.500 V 172.500 C 135.200 172.445 135.155 172.400 135.100 172.400 H 132.200 C 132.100 172.400 132.200 172.500 132.200 172.400 V 166.600 C 132.200 166.500 132.100 166.600 132.200 166.600 H 135.100 C 135.155 166.600 135.200 166.555 135.200 166.500 V 159.500 V 153.500 C 135.200 153.445 135.155 153.400 135.100 153.400 H 132.100 H 13.100 H 10.100 C 10.045 153.400 10.000 153.445 10.000 153.500 V 159.500 V 166.500 C 10.000 166.555 10.045 166.600 10.100 166.600 H 13.000 C 13.100 166.600 13.000 166.500 13.000 166.600 V 172.400 C 13.000 172.500 13.100 172.400 13.000 172.400 H 10.100 C 10.045 172.400 10.000 172.445 10.000 172.500 V 178.500 C 10.000 178.555 10.045 178.600 10.100 178.600 H 13.000 C 13.100 178.600 13.000 178.500 13.000 178.600 V 184.400 C 13.000 184.500 13.100 184.400 13.000 184.400 H 10.100 C 10.045 184.400 10.000 184.445 10.000 184.500 V 190.500 C 10.000 190.555 10.045 190.600 10.100 190.600 H 13.000 C 13.100 190.600 13.000 190.500 13.000 190.600 V 196.400 C 13.000 196.500 13.100 196.400 13.000 196.400 H 10.100 C 10.045 196.400 10.000 196.445 10.000 196.500 V 203.500 C 10.000 203.555 10.045 203.600 10.100 203.600 H 13.100"
       stroke="rgb(0,0,0)"
       stroke-width="0.20"
       id="path12"
       style="stroke:#ff00ff" /><path
       d="m 120.86844,165.3836 h 2.9 c 0.1,0 0,-0.1 0,0 v 2.8 c 0,0.1 0.1,0 0,0 h -5.8 c -0.1,0 0,0.1 0,0 v -2.8 c 0,-0.1 -0.1,0 0,0 z"
       stroke="#0000ff"
       stroke-width="0.2"
       id="path13"
       style="stroke:#ff00ff" /><path
       d="m 108.86844,165.3836 h 2.9 c 0.1,0 0,-0.1 0,0 v 2.8 c 0,0.1 0.1,0 0,0 h -5.8 c -0.1,0 0,0.1 0,0 v -2.8 c 0,-0.1 -0.1,0 0,0 z"
       stroke="#0000ff"
       stroke-width="0.2"
       id="path14"
       style="stroke:#ff00ff" /><path
       d="m 96.868439,165.3836 h 2.9 c 0.1,0 0,-0.1 0,0 v 2.8 c 0,0.1 0.1,0 0,0 h -5.8 c -0.1,0 0,0.1 0,0 v -2.8 c 0,-0.1 -0.1,0 0,0 z"
       stroke="#0000ff"
       stroke-width="0.2"
       id="path15"
       style="stroke:#ff00ff" /><path
       d="m 84.868439,165.3836 h 2.9 c 0.1,0 0,-0.1 0,0 v 2.8 c 0,0.1 0.1,0 0,0 h -5.8 c -0.1,0 0,0.1 0,0 v -2.8 c 0,-0.1 -0.1,0 0,0 z"
       stroke="#0000ff"
       stroke-width="0.2"
       id="path16"
       style="stroke:#ff00ff" /><path
       d="m 72.868439,165.3836 h 2.9 c 0.1,0 0,-0.1 0,0 v 2.8 c 0,0.1 0.1,0 0,0 h -5.8 c -0.1,0 0,0.1 0,0 v -2.8 c 0,-0.1 -0.1,0 0,0 z"
       stroke="#0000ff"
       stroke-width="0.2"
       id="path17"
       style="stroke:#ff00ff" /><path
       d="m 60.868439,165.3836 h 2.9 c 0.1,0 0,-0.1 0,0 v 2.8 c 0,0.1 0.1,0 0,0 h -5.8 c -0.1,0 0,0.1 0,0 v -2.8 c 0,-0.1 -0.1,0 0,0 z"
       stroke="#0000ff"
       stroke-width="0.2"
       id="path18"
       style="stroke:#ff00ff" /><path
       d="m 48.868439,165.3836 h 2.9 c 0.1,0 0,-0.1 0,0 v 2.8 c 0,0.1 0.1,0 0,0 h -5.8 c -0.1,0 0,0.1 0,0 v -2.8 c 0,-0.1 -0.1,0 0,0 z"
       stroke="#0000ff"
       stroke-width="0.2"
       id="path19"
       style="stroke:#ff00ff" /><path
       d="m 36.868439,165.3836 h 2.9 c 0.1,0 0,-0.1 0,0 v 2.8 c 0,0.1 0.1,0 0,0 h -5.8 c -0.1,0 0,0.1 0,0 v -2.8 c 0,-0.1 -0.1,0 0,0 z"
       stroke="#0000ff"
       stroke-width="0.2"
       id="path20"
       style="stroke:#ff00ff" /><path
       d="m 24.868439,165.3836 h 2.9 c 0.1,0 0,-0.1 0,0 v 2.8 c 0,0.1 0.1,0 0,0 h -5.8 c -0.1,0 0,0.1 0,0 v -2.8 c 0,-0.1 -0.1,0 0,0 z"
       stroke="#0000ff"
       stroke-width="0.2"
       id="path21"
       style="stroke:#ff00ff" /></g><g
     id="p-3"
     style="fill:none;stroke-linecap:round;stroke-linejoin:round;stroke:#ff00ff"><text
       dominant-baseline="hanging"
       font-size="4px"
       style="font-family:'Apple Braille';font-weight:normal;font-style:normal;fill:rgb(255, 0, 0);-inkscape-font-specification:'Apple Braille';font-stretch:normal;font-variant:normal;stroke:#ff00ff"
       text-anchor="middle"
       transform="matrix( 1.000 0.000 0.000 1.000 72.600 114.900 )"
       id="text21">bottom</text><path
       d="M 13.100 148.900 H 21.500 C 21.600 148.900 21.500 148.800 21.500 148.900 V 151.800 C 21.500 151.855 21.545 151.900 21.600 151.900 H 27.600 C 27.655 151.900 27.700 151.855 27.700 151.800 V 148.900 C 27.700 148.800 27.600 148.900 27.700 148.900 H 33.500 C 33.600 148.900 33.500 148.800 33.500 148.900 V 151.800 C 33.500 151.855 33.545 151.900 33.600 151.900 H 39.600 C 39.655 151.900 39.700 151.855 39.700 151.800 V 148.900 C 39.700 148.800 39.600 148.900 39.700 148.900 H 45.500 C 45.600 148.900 45.500 148.800 45.500 148.900 V 151.800 C 45.500 151.855 45.545 151.900 45.600 151.900 H 51.600 C 51.655 151.900 51.700 151.855 51.700 151.800 V 148.900 C 51.700 148.800 51.600 148.900 51.700 148.900 H 57.500 C 57.600 148.900 57.500 148.800 57.500 148.900 V 151.800 C 57.500 151.855 57.545 151.900 57.600 151.900 H 63.600 C 63.655 151.900 63.700 151.855 63.700 151.800 V 148.900 C 63.700 148.800 63.600 148.900 63.700 148.900 H 69.500 C 69.600 148.900 69.500 148.800 69.500 148.900 V 151.800 C 69.500 151.855 69.545 151.900 69.600 151.900 H 75.600 C 75.655 151.900 75.700 151.855 75.700 151.800 V 148.900 C 75.700 148.800 75.600 148.900 75.700 148.900 H 81.500 C 81.600 148.900 81.500 148.800 81.500 148.900 V 151.800 C 81.500 151.855 81.545 151.900 81.600 151.900 H 87.600 C 87.655 151.900 87.700 151.855 87.700 151.800 V 148.900 C 87.700 148.800 87.600 148.900 87.700 148.900 H 93.500 C 93.600 148.900 93.500 148.800 93.500 148.900 V 151.800 C 93.500 151.855 93.545 151.900 93.600 151.900 H 99.600 C 99.655 151.900 99.700 151.855 99.700 151.800 V 148.900 C 99.700 148.800 99.600 148.900 99.700 148.900 H 105.500 C 105.600 148.900 105.500 148.800 105.500 148.900 V 151.800 C 105.500 151.855 105.545 151.900 105.600 151.900 H 111.600 C 111.655 151.900 111.700 151.855 111.700 151.800 V 148.900 C 111.700 148.800 111.600 148.900 111.700 148.900 H 117.500 C 117.600 148.900 117.500 148.800 117.500 148.900 V 151.800 C 117.500 151.855 117.545 151.900 117.600 151.900 H 123.600 C 123.655 151.900 123.700 151.855 123.700 151.800 V 148.900 C 123.700 148.800 123.600 148.900 123.700 148.900 H 132.100 C 132.155 148.900 132.200 148.855 132.200 148.800 V 137.900 C 132.200 137.800 132.100 137.900 132.200 137.900 H 135.100 C 135.155 137.900 135.200 137.855 135.200 137.800 V 131.800 C 135.200 131.745 135.155 131.700 135.100 131.700 H 132.200 C 132.100 131.700 132.200 131.800 132.200 131.700 V 125.900 C 132.200 125.800 132.100 125.900 132.200 125.900 H 135.100 C 135.155 125.900 135.200 125.855 135.200 125.800 V 119.800 C 135.200 119.745 135.155 119.700 135.100 119.700 H 132.200 C 132.100 119.700 132.200 119.800 132.200 119.700 V 113.900 C 132.200 113.800 132.100 113.900 132.200 113.900 H 135.100 C 135.155 113.900 135.200 113.855 135.200 113.800 V 107.800 C 135.200 107.745 135.155 107.700 135.100 107.700 H 132.200 C 132.100 107.700 132.200 107.800 132.200 107.700 V 101.900 C 132.200 101.800 132.100 101.900 132.200 101.900 H 135.100 C 135.155 101.900 135.200 101.855 135.200 101.800 V 95.800 C 135.200 95.745 135.155 95.700 135.100 95.700 H 132.200 C 132.100 95.700 132.200 95.800 132.200 95.700 V 84.800 C 132.200 84.745 132.155 84.700 132.100 84.700 H 123.700 C 123.600 84.700 123.700 84.800 123.700 84.700 V 81.800 C 123.700 81.745 123.655 81.700 123.600 81.700 H 117.600 C 117.545 81.700 117.500 81.745 117.500 81.800 V 84.700 C 117.500 84.800 117.600 84.700 117.500 84.700 H 111.700 C 111.600 84.700 111.700 84.800 111.700 84.700 V 81.800 C 111.700 81.745 111.655 81.700 111.600 81.700 H 105.600 C 105.545 81.700 105.500 81.745 105.500 81.800 V 84.700 C 105.500 84.800 105.600 84.700 105.500 84.700 H 99.700 C 99.600 84.700 99.700 84.800 99.700 84.700 V 81.800 C 99.700 81.745 99.655 81.700 99.600 81.700 H 93.600 C 93.545 81.700 93.500 81.745 93.500 81.800 V 84.700 C 93.500 84.800 93.600 84.700 93.500 84.700 H 87.700 C 87.600 84.700 87.700 84.800 87.700 84.700 V 81.800 C 87.700 81.745 87.655 81.700 87.600 81.700 H 81.600 C 81.545 81.700 81.500 81.745 81.500 81.800 V 84.700 C 81.500 84.800 81.600 84.700 81.500 84.700 H 75.700 C 75.600 84.700 75.700 84.800 75.700 84.700 V 81.800 C 75.700 81.745 75.655 81.700 75.600 81.700 H 69.600 C 69.545 81.700 69.500 81.745 69.500 81.800 V 84.700 C 69.500 84.800 69.600 84.700 69.500 84.700 H 63.700 C 63.600 84.700 63.700 84.800 63.700 84.700 V 81.800 C 63.700 81.745 63.655 81.700 63.600 81.700 H 57.600 C 57.545 81.700 57.500 81.745 57.500 81.800 V 84.700 C 57.500 84.800 57.600 84.700 57.500 84.700 H 51.700 C 51.600 84.700 51.700 84.800 51.700 84.700 V 81.800 C 51.700 81.745 51.655 81.700 51.600 81.700 H 45.600 C 45.545 81.700 45.500 81.745 45.500 81.800 V 84.700 C 45.500 84.800 45.600 84.700 45.500 84.700 H 39.700 C 39.600 84.700 39.700 84.800 39.700 84.700 V 81.800 C 39.700 81.745 39.655 81.700 39.600 81.700 H 33.600 C 33.545 81.700 33.500 81.745 33.500 81.800 V 84.700 C 33.500 84.800 33.600 84.700 33.500 84.700 H 27.700 C 27.600 84.700 27.700 84.800 27.700 84.700 V 81.800 C 27.700 81.745 27.655 81.700 27.600 81.700 H 21.600 C 21.545 81.700 21.500 81.745 21.500 81.800 V 84.700 C 21.500 84.800 21.600 84.700 21.500 84.700 H 13.100 C 13.045 84.700 13.000 84.745 13.000 84.800 V 95.700 C 13.000 95.800 13.100 95.700 13.000 95.700 H 10.100 C 10.045 95.700 10.000 95.745 10.000 95.800 V 101.800 C 10.000 101.855 10.045 101.900 10.100 101.900 H 13.000 C 13.100 101.900 13.000 101.800 13.000 101.900 V 107.700 C 13.000 107.800 13.100 107.700 13.000 107.700 H 10.100 C 10.045 107.700 10.000 107.745 10.000 107.800 V 113.800 C 10.000 113.855 10.045 113.900 10.100 113.900 H 13.000 C 13.100 113.900 13.000 113.800 13.000 113.900 V 119.700 C 13.000 119.800 13.100 119.700 13.000 119.700 H 10.100 C 10.045 119.700 10.000 119.745 10.000 119.800 V 125.800 C 10.000 125.855 10.045 125.900 10.100 125.900 H 13.000 C 13.100 125.900 13.000 125.800 13.000 125.900 V 131.700 C 13.000 131.800 13.100 131.700 13.000 131.700 H 10.100 C 10.045 131.700 10.000 131.745 10.000 131.800 V 137.800 C 10.000 137.855 10.045 137.900 10.100 137.900 H 13.000 C 13.100 137.900 13.000 137.800 13.000 137.900 V 148.800 C 13.000 148.855 13.045 148.900 13.100 148.900"
       stroke="rgb(0,0,0)"
       stroke-width="0.20"
       id="path22"
       style="stroke:#ff00ff" /></g><g
     id="p-4"
     style="fill:none;stroke-linecap:round;stroke-linejoin:round;stroke:#ff00ff"><text
       dominant-baseline="hanging"
       font-size="4px"
       style="font-family:'Apple Braille';font-weight:normal;font-style:normal;fill:rgb(255, 0, 0);-inkscape-font-specification:'Apple Braille';font-stretch:normal;font-variant:normal;stroke:#ff00ff"
       text-anchor="middle"
       transform="matrix( 1.000 0.000 0.000 1.000 72.600 43.200 )"
       id="text22">top</text><path
       d="M 13.100 77.200 H 21.500 C 21.600 77.200 21.500 77.100 21.500 77.200 V 80.100 C 21.500 80.155 21.545 80.200 21.600 80.200 H 27.600 C 27.655 80.200 27.700 80.155 27.700 80.100 V 77.200 C 27.700 77.100 27.600 77.200 27.700 77.200 H 33.500 C 33.600 77.200 33.500 77.100 33.500 77.200 V 80.100 C 33.500 80.155 33.545 80.200 33.600 80.200 H 39.600 C 39.655 80.200 39.700 80.155 39.700 80.100 V 77.200 C 39.700 77.100 39.600 77.200 39.700 77.200 H 45.500 C 45.600 77.200 45.500 77.100 45.500 77.200 V 80.100 C 45.500 80.155 45.545 80.200 45.600 80.200 H 51.600 C 51.655 80.200 51.700 80.155 51.700 80.100 V 77.200 C 51.700 77.100 51.600 77.200 51.700 77.200 H 57.500 C 57.600 77.200 57.500 77.100 57.500 77.200 V 80.100 C 57.500 80.155 57.545 80.200 57.600 80.200 H 63.600 C 63.655 80.200 63.700 80.155 63.700 80.100 V 77.200 C 63.700 77.100 63.600 77.200 63.700 77.200 H 69.500 C 69.600 77.200 69.500 77.100 69.500 77.200 V 80.100 C 69.500 80.155 69.545 80.200 69.600 80.200 H 75.600 C 75.655 80.200 75.700 80.155 75.700 80.100 V 77.200 C 75.700 77.100 75.600 77.200 75.700 77.200 H 81.500 C 81.600 77.200 81.500 77.100 81.500 77.200 V 80.100 C 81.500 80.155 81.545 80.200 81.600 80.200 H 87.600 C 87.655 80.200 87.700 80.155 87.700 80.100 V 77.200 C 87.700 77.100 87.600 77.200 87.700 77.200 H 93.500 C 93.600 77.200 93.500 77.100 93.500 77.200 V 80.100 C 93.500 80.155 93.545 80.200 93.600 80.200 H 99.600 C 99.655 80.200 99.700 80.155 99.700 80.100 V 77.200 C 99.700 77.100 99.600 77.200 99.700 77.200 H 105.500 C 105.600 77.200 105.500 77.100 105.500 77.200 V 80.100 C 105.500 80.155 105.545 80.200 105.600 80.200 H 111.600 C 111.655 80.200 111.700 80.155 111.700 80.100 V 77.200 C 111.700 77.100 111.600 77.200 111.700 77.200 H 117.500 C 117.600 77.200 117.500 77.100 117.500 77.200 V 80.100 C 117.500 80.155 117.545 80.200 117.600 80.200 H 123.600 C 123.655 80.200 123.700 80.155 123.700 80.100 V 77.200 C 123.700 77.100 123.600 77.200 123.700 77.200 H 132.100 C 132.155 77.200 132.200 77.155 132.200 77.100 V 66.200 C 132.200 66.100 132.100 66.200 132.200 66.200 H 135.100 C 135.155 66.200 135.200 66.155 135.200 66.100 V 60.100 C 135.200 60.045 135.155 60.000 135.100 60.000 H 132.200 C 132.100 60.000 132.200 60.100 132.200 60.000 V 54.200 C 132.200 54.100 132.100 54.200 132.200 54.200 H 135.100 C 135.155 54.200 135.200 54.155 135.200 54.100 V 48.100 C 135.200 48.045 135.155 48.000 135.100 48.000 H 132.200 C 132.100 48.000 132.200 48.100 132.200 48.000 V 42.200 C 132.200 42.100 132.100 42.200 132.200 42.200 H 135.100 C 135.155 42.200 135.200 42.155 135.200 42.100 V 36.100 C 135.200 36.045 135.155 36.000 135.100 36.000 H 132.200 C 132.100 36.000 132.200 36.100 132.200 36.000 V 30.200 C 132.200 30.100 132.100 30.200 132.200 30.200 H 135.100 C 135.155 30.200 135.200 30.155 135.200 30.100 V 24.100 C 135.200 24.045 135.155 24.000 135.100 24.000 H 132.200 C 132.100 24.000 132.200 24.100 132.200 24.000 V 13.100 C 132.200 13.045 132.155 13.000 132.100 13.000 H 123.700 C 123.600 13.000 123.700 13.100 123.700 13.000 V 10.100 C 123.700 10.045 123.655 10.000 123.600 10.000 H 117.600 C 117.545 10.000 117.500 10.045 117.500 10.100 V 13.000 C 117.500 13.100 117.600 13.000 117.500 13.000 H 111.700 C 111.600 13.000 111.700 13.100 111.700 13.000 V 10.100 C 111.700 10.045 111.655 10.000 111.600 10.000 H 105.600 C 105.545 10.000 105.500 10.045 105.500 10.100 V 13.000 C 105.500 13.100 105.600 13.000 105.500 13.000 H 99.700 C 99.600 13.000 99.700 13.100 99.700 13.000 V 10.100 C 99.700 10.045 99.655 10.000 99.600 10.000 H 93.600 C 93.545 10.000 93.500 10.045 93.500 10.100 V 13.000 C 93.500 13.100 93.600 13.000 93.500 13.000 H 87.700 C 87.600 13.000 87.700 13.100 87.700 13.000 V 10.100 C 87.700 10.045 87.655 10.000 87.600 10.000 H 81.600 C 81.545 10.000 81.500 10.045 81.500 10.100 V 13.000 C 81.500 13.100 81.600 13.000 81.500 13.000 H 75.700 C 75.600 13.000 75.700 13.100 75.700 13.000 V 10.100 C 75.700 10.045 75.655 10.000 75.600 10.000 H 69.600 C 69.545 10.000 69.500 10.045 69.500 10.100 V 13.000 C 69.500 13.100 69.600 13.000 69.500 13.000 H 63.700 C 63.600 13.000 63.700 13.100 63.700 13.000 V 10.100 C 63.700 10.045 63.655 10.000 63.600 10.000 H 57.600 C 57.545 10.000 57.500 10.045 57.500 10.100 V 13.000 C 57.500 13.100 57.600 13.000 57.500 13.000 H 51.700 C 51.600 13.000 51.700 13.100 51.700 13.000 V 10.100 C 51.700 10.045 51.655 10.000 51.600 10.000 H 45.600 C 45.545 10.000 45.500 10.045 45.500 10.100 V 13.000 C 45.500 13.100 45.600 13.000 45.500 13.000 H 39.700 C 39.600 13.000 39.700 13.100 39.700 13.000 V 10.100 C 39.700 10.045 39.655 10.000 39.600 10.000 H 33.600 C 33.545 10.000 33.500 10.045 33.500 10.100 V 13.000 C 33.500 13.100 33.600 13.000 33.500 13.000 H 27.700 C 27.600 13.000 27.700 13.100 27.700 13.000 V 10.100 C 27.700 10.045 27.655 10.000 27.600 10.000 H 21.600 C 21.545 10.000 21.500 10.045 21.500 10.100 V 13.000 C 21.500 13.100 21.600 13.000 21.500 13.000 H 13.100 C 13.045 13.000 13.000 13.045 13.000 13.100 V 24.000 C 13.000 24.100 13.100 24.000 13.000 24.000 H 10.100 C 10.045 24.000 10.000 24.045 10.000 24.100 V 30.100 C 10.000 30.155 10.045 30.200 10.100 30.200 H 13.000 C 13.100 30.200 13.000 30.100 13.000 30.200 V 36.000 C 13.000 36.100 13.100 36.000 13.000 36.000 H 10.100 C 10.045 36.000 10.000 36.045 10.000 36.100 V 42.100 C 10.000 42.155 10.045 42.200 10.100 42.200 H 13.000 C 13.100 42.200 13.000 42.100 13.000 42.200 V 48.000 C 13.000 48.100 13.100 48.000 13.000 48.000 H 10.100 C 10.045 48.000 10.000 48.045 10.000 48.100 V 54.100 C 10.000 54.155 10.045 54.200 10.100 54.200 H 13.000 C 13.100 54.200 13.000 54.100 13.000 54.200 V 60.000 C 13.000 60.100 13.100 60.000 13.000 60.000 H 10.100 C 10.045 60.000 10.000 60.045 10.000 60.100 V 66.100 C 10.000 66.155 10.045 66.200 10.100 66.200 H 13.000 C 13.100 66.200 13.000 66.100 13.000 66.200 V 77.100 C 13.000 77.155 13.045 77.200 13.100 77.200"
       stroke="rgb(0,0,0)"
       stroke-width="0.20"
       id="path23"
       style="stroke:#ff00ff" /></g><g
     id="p-5"
     style="fill:none;stroke-linecap:round;stroke-linejoin:round;stroke:#ff00ff"><text
       dominant-baseline="hanging"
       font-size="4px"
       style="font-family:'Apple Braille';font-weight:normal;font-style:normal;fill:rgb(255, 0, 0);-inkscape-font-specification:'Apple Braille';font-stretch:normal;font-variant:normal;stroke:#ff00ff"
       text-anchor="middle"
       transform="matrix( 1.000 0.000 0.000 1.000 171.800 228.300 )"
       id="text23">left</text><path
       d="M 139.800 255.300 H 150.800 C 150.855 255.300 150.900 255.255 150.900 255.200 V 252.300 C 150.900 252.200 150.800 252.300 150.900 252.300 H 156.700 C 156.800 252.300 156.700 252.200 156.700 252.300 V 255.200 C 156.700 255.255 156.745 255.300 156.800 255.300 H 162.800 C 162.855 255.300 162.900 255.255 162.900 255.200 V 252.300 C 162.900 252.200 162.800 252.300 162.900 252.300 H 168.700 C 168.800 252.300 168.700 252.200 168.700 252.300 V 255.200 C 168.700 255.255 168.745 255.300 168.800 255.300 H 174.800 C 174.855 255.300 174.900 255.255 174.900 255.200 V 252.300 C 174.900 252.200 174.800 252.300 174.900 252.300 H 180.700 C 180.800 252.300 180.700 252.200 180.700 252.300 V 255.200 C 180.700 255.255 180.745 255.300 180.800 255.300 H 186.800 C 186.855 255.300 186.900 255.255 186.900 255.200 V 252.300 C 186.900 252.200 186.800 252.300 186.900 252.300 H 192.700 C 192.800 252.300 192.700 252.200 192.700 252.300 V 255.200 C 192.700 255.255 192.745 255.300 192.800 255.300 H 203.800 C 203.855 255.300 203.900 255.255 203.900 255.200 V 248.300 C 203.900 248.200 203.800 248.300 203.900 248.300 H 206.800 C 206.855 248.300 206.900 248.255 206.900 248.200 V 242.200 C 206.900 242.145 206.855 242.100 206.800 242.100 H 203.900 C 203.800 242.100 203.900 242.200 203.900 242.100 V 236.300 C 203.900 236.200 203.800 236.300 203.900 236.300 H 206.800 C 206.855 236.300 206.900 236.255 206.900 236.200 V 230.200 C 206.900 230.145 206.855 230.100 206.800 230.100 H 203.900 C 203.800 230.100 203.900 230.200 203.900 230.100 V 224.300 C 203.900 224.200 203.800 224.300 203.900 224.300 H 206.800 C 206.855 224.300 206.900 224.255 206.900 224.200 V 218.200 C 206.900 218.145 206.855 218.100 206.800 218.100 H 203.900 C 203.800 218.100 203.900 218.200 203.900 218.100 V 211.200 V 205.200 C 203.900 205.145 203.855 205.100 203.800 205.100 H 139.800 C 139.745 205.100 139.700 205.145 139.700 205.200 V 211.200 V 218.100 C 139.700 218.200 139.800 218.100 139.700 218.100 H 136.800 C 136.745 218.100 136.700 218.145 136.700 218.200 V 224.200 C 136.700 224.255 136.745 224.300 136.800 224.300 H 139.700 C 139.800 224.300 139.700 224.200 139.700 224.300 V 230.100 C 139.700 230.200 139.800 230.100 139.700 230.100 H 136.800 C 136.745 230.100 136.700 230.145 136.700 230.200 V 236.200 C 136.700 236.255 136.745 236.300 136.800 236.300 H 139.700 C 139.800 236.300 139.700 236.200 139.700 236.300 V 242.100 C 139.700 242.200 139.800 242.100 139.700 242.100 H 136.800 C 136.745 242.100 136.700 242.145 136.700 242.200 V 248.200 C 136.700 248.255 136.745 248.300 136.800 248.300 H 139.700 C 139.800 248.300 139.700 248.200 139.700 248.300 V 255.200 C 139.700 255.255 139.745 255.300 139.800 255.300"
       stroke="rgb(0,0,0)"
       stroke-width="0.20"
       id="path24"
       style="stroke:#ff00ff" /><path
       d="m 190.06844,217.0836 h 2.9 c 0.1,0 0,-0.1 0,0 v 2.8 c 0,0.1 0.1,0 0,0 h -5.8 c -0.1,0 0,0.1 0,0 v -2.8 c 0,-0.1 -0.1,0 0,0 z"
       stroke="#0000ff"
       stroke-width="0.2"
       id="path25"
       style="stroke:#ff00ff" /><path
       d="m 178.06844,217.0836 h 2.9 c 0.1,0 0,-0.1 0,0 v 2.8 c 0,0.1 0.1,0 0,0 h -5.8 c -0.1,0 0,0.1 0,0 v -2.8 c 0,-0.1 -0.1,0 0,0 z"
       stroke="#0000ff"
       stroke-width="0.2"
       id="path26"
       style="stroke:#ff00ff" /><path
       d="m 166.06844,217.0836 h 2.9 c 0.1,0 0,-0.1 0,0 v 2.8 c 0,0.1 0.1,0 0,0 h -5.8 c -0.1,0 0,0.1 0,0 v -2.8 c 0,-0.1 -0.1,0 0,0 z"
       stroke="#0000ff"
       stroke-width="0.2"
       id="path27"
       style="stroke:#ff00ff" /><path
       d="m 154.06844,217.0836 h 2.9 c 0.1,0 0,-0.1 0,0 v 2.8 c 0,0.1 0.1,0 0,0 h -5.8 c -0.1,0 0,0.1 0,0 v -2.8 c 0,-0.1 -0.1,0 0,0 z"
       stroke="#0000ff"
       stroke-width="0.2"
       id="path28"
       style="stroke:#ff00ff" /></g><g
     id="p-6"
     style="fill:none;stroke-linecap:round;stroke-linejoin:round;stroke:#ff00ff"><text
       dominant-baseline="hanging"
       font-size="4px"
       style="font-family:'Apple Braille';font-weight:normal;font-style:normal;fill:rgb(255, 0, 0);-inkscape-font-specification:'Apple Braille';font-stretch:normal;font-variant:normal;stroke:#ff00ff"
       text-anchor="middle"
       transform="matrix( 1.000 0.000 0.000 1.000 171.800 176.600 )"
       id="text28">right</text><path
       d="M 139.800 203.600 H 150.800 C 150.855 203.600 150.900 203.555 150.900 203.500 V 200.600 C 150.900 200.500 150.800 200.600 150.900 200.600 H 156.700 C 156.800 200.600 156.700 200.500 156.700 200.600 V 203.500 C 156.700 203.555 156.745 203.600 156.800 203.600 H 162.800 C 162.855 203.600 162.900 203.555 162.900 203.500 V 200.600 C 162.900 200.500 162.800 200.600 162.900 200.600 H 168.700 C 168.800 200.600 168.700 200.500 168.700 200.600 V 203.500 C 168.700 203.555 168.745 203.600 168.800 203.600 H 174.800 C 174.855 203.600 174.900 203.555 174.900 203.500 V 200.600 C 174.900 200.500 174.800 200.600 174.900 200.600 H 180.700 C 180.800 200.600 180.700 200.500 180.700 200.600 V 203.500 C 180.700 203.555 180.745 203.600 180.800 203.600 H 186.800 C 186.855 203.600 186.900 203.555 186.900 203.500 V 200.600 C 186.900 200.500 186.800 200.600 186.900 200.600 H 192.700 C 192.800 200.600 192.700 200.500 192.700 200.600 V 203.500 C 192.700 203.555 192.745 203.600 192.800 203.600 H 203.800 C 203.855 203.600 203.900 203.555 203.900 203.500 V 196.600 C 203.900 196.500 203.800 196.600 203.900 196.600 H 206.800 C 206.855 196.600 206.900 196.555 206.900 196.500 V 190.500 C 206.900 190.445 206.855 190.400 206.800 190.400 H 203.900 C 203.800 190.400 203.900 190.500 203.900 190.400 V 184.600 C 203.900 184.500 203.800 184.600 203.900 184.600 H 206.800 C 206.855 184.600 206.900 184.555 206.900 184.500 V 178.500 C 206.900 178.445 206.855 178.400 206.800 178.400 H 203.900 C 203.800 178.400 203.900 178.500 203.900 178.400 V 172.600 C 203.900 172.500 203.800 172.600 203.900 172.600 H 206.800 C 206.855 172.600 206.900 172.555 206.900 172.500 V 166.500 C 206.900 166.445 206.855 166.400 206.800 166.400 H 203.900 C 203.800 166.400 203.900 166.500 203.900 166.400 V 159.500 V 153.500 C 203.900 153.445 203.855 153.400 203.800 153.400 H 139.800 C 139.745 153.400 139.700 153.445 139.700 153.500 V 159.500 V 166.400 C 139.700 166.500 139.800 166.400 139.700 166.400 H 136.800 C 136.745 166.400 136.700 166.445 136.700 166.500 V 172.500 C 136.700 172.555 136.745 172.600 136.800 172.600 H 139.700 C 139.800 172.600 139.700 172.500 139.700 172.600 V 178.400 C 139.700 178.500 139.800 178.400 139.700 178.400 H 136.800 C 136.745 178.400 136.700 178.445 136.700 178.500 V 184.500 C 136.700 184.555 136.745 184.600 136.800 184.600 H 139.700 C 139.800 184.600 139.700 184.500 139.700 184.600 V 190.400 C 139.700 190.500 139.800 190.400 139.700 190.400 H 136.800 C 136.745 190.400 136.700 190.445 136.700 190.500 V 196.500 C 136.700 196.555 136.745 196.600 136.800 196.600 H 139.700 C 139.800 196.600 139.700 196.500 139.700 196.600 V 203.500 C 139.700 203.555 139.745 203.600 139.800 203.600"
       stroke="rgb(0,0,0)"
       stroke-width="0.20"
       id="path29"
       style="stroke:#ff00ff" /><path
       d="m 190.06844,165.3836 h 2.9 c 0.1,0 0,-0.1 0,0 v 2.8 c 0,0.1 0.1,0 0,0 h -5.8 c -0.1,0 0,0.1 0,0 v -2.8 c 0,-0.1 -0.1,0 0,0 z"
       stroke="#0000ff"
       stroke-width="0.2"
       id="path30"
       style="stroke:#ff00ff" /><path
       d="m 178.06844,165.3836 h 2.9 c 0.1,0 0,-0.1 0,0 v 2.8 c 0,0.1 0.1,0 0,0 h -5.8 c -0.1,0 0,0.1 0,0 v -2.8 c 0,-0.1 -0.1,0 0,0 z"
       stroke="#0000ff"
       stroke-width="0.2"
       id="path31"
       style="stroke:#ff00ff" /><path
       d="m 166.06844,165.3836 h 2.9 c 0.1,0 0,-0.1 0,0 v 2.8 c 0,0.1 0.1,0 0,0 h -5.8 c -0.1,0 0,0.1 0,0 v -2.8 c 0,-0.1 -0.1,0 0,0 z"
       stroke="#0000ff"
       stroke-width="0.2"
       id="path32"
       style="stroke:#ff00ff" /><path
       d="m 154.06844,165.3836 h 2.9 c 0.1,0 0,-0.1 0,0 v 2.8 c 0,0.1 0.1,0 0,0 h -5.8 c -0.1,0 0,0.1 0,0 v -2.8 c 0,-0.1 -0.1,0 0,0 z"
       stroke="#0000ff"
       stroke-width="0.2"
       id="path33"
       style="stroke:#ff00ff" /></g><path
     style="display:none;fill:#000000;stroke-width:0.264583"
     d="m 9.912905,204.99887 74.887735,0.20026"
     id="path34" /><path
     style="display:none;fill:none;stroke-width:0.264583"
     d="m 9.6886322,204.77702 74.9971888,-0.35884 v 47.36664"
     id="path38" /><path
     style="display:none;fill:none;stroke-width:0.264583"
     d="m 84.326983,204.77702 v 47.24703"
     id="path39" /><path
     style="display:none;fill:none;stroke:#000000;stroke-width:0.264583"
     d="m 85.04466,204.77702 0.239226,47.0078"
     id="path40" /><path
     style="display:none;fill:none;stroke:#000000;stroke-width:0.264583"
     d="m 9.8000911,204.8945 v 25.04468 H 135.11422"
     id="path45" /><path
     style="display:none;fill:none;stroke:#000000;stroke-width:0.264583"
     d="m 101.48523,204.88183 v 50.151"
     id="path46" /><path
     style="display:none;fill:none;stroke:#000000;stroke-width:0.264583"
     d="m 118.05053,204.79082 v 47.32943"
     id="path47" /><path
     style="display:none;fill:none;stroke:#000000;stroke-width:0.264583"
     d="m 34.998739,204.7531 v 47.25878"
     id="path48" /><path
     style="display:none;fill:none;stroke:#000000;stroke-width:0.264583"
     d="m 59.937959,204.85788 v 47.04921"
     id="path49" /><circle
     style="fill:none;stroke:#ff00ff;stroke-width:0.275869"
     id="path51"
     cx="35.000999"
     cy="229.98918"
     r="2.5" /><circle
     style="fill:none;stroke:#ff00ff;stroke-width:0.275869"
     id="path51-4"
     cx="59.660641"
     cy="229.94608"
     r="2.5" /><circle
     style="fill:none;stroke:#ff00ff;stroke-width:0.275869"
     id="path51-4-5"
     cx="91.978241"
     cy="230.02573"
     r="3" /><rect
     style="fill:none;stroke:#ff00ff;stroke-width:0.352251"
     id="rect51"
     width="12.64775"
     height="12.647749"
     x="113.51897"
     y="224.2628" /><rect
     style="fill:#000000;stroke:#000000;stroke-width:0.264583"
     id="rect52"
     width="8"
     height="8"
     x="31.164593"
     y="240.83815" /><rect
     style="fill:#000000;stroke:#000000;stroke-width:0.264583"
     id="rect52-4"
     width="8"
     height="8"
     x="55.910069"
     y="241.20911" /><rect
     style="fill:#000000;stroke:#000000;stroke-width:0.264583"
     id="rect52-5"
     width="8"
     height="8"
     x="115.78625"
     y="240.96936" /><rect
     style="fill:#000000;stroke:#000000;stroke-width:0.264583"
     id="rect52-3"
     width="8"
     height="8"
     x="77.753609"
     y="234.9993" /><path
     d="m 35.069637,246.36735 v -3.175 a 1.5875,1.5875 0 0 1 1.5875,1.5875 1.5875,1.5875 0 0 1 -1.5875,1.5875 m 2.11666,-0.71173 0.87577,-0.87577 -0.87577,-0.87577 v -1.2409 h -1.24089 l -0.87577,-0.87577 -0.87577,0.87577 h -1.2409 v 1.2409 l -0.87577,0.87577 0.87577,0.87577 v 1.24089 h 1.2409 l 0.87577,0.87577 0.87577,-0.87577 h 1.24089 z"
     id="path1-7"
     style="stroke-width:0.264583;fill:#ffffff;stroke:#000000" /><path
     d="m 60.589583,245.4069 v -2.11667 a 0.79375,0.79375 0 0 0 -1.5875,0 v 2.11667 a 1.3229167,1.3229167 0 1 0 1.5875,0 m -0.79375,-2.38125 a 0.26458333,0.26458333 0 0 1 0.264583,0.26458 v 1.85209 H 59.53125 v -1.85209 a 0.26458333,0.26458333 0 0 1 0.264583,-0.26458 z"
     id="path1-4"
     style="stroke-width:0.264583;fill:#ffffff" /><rect
     style="fill:#000000;stroke:#000000;stroke-width:0.264583"
     id="rect52-0"
     width="8"
     height="8"
     x="77.632103"
     y="221.83737" /><path
     d="m 119.81722,242.51339 a 2.38125,2.38125 0 0 0 -2.38125,2.38125 2.38125,2.38125 0 0 0 2.38125,2.38125 2.38125,2.38125 0 0 0 2.38125,-2.38125 2.38125,2.38125 0 0 0 -2.38125,-2.38125 m 0,4.23333 a 1.8520833,1.8520833 0 0 1 -1.85208,-1.85208 1.8520833,1.8520833 0 0 1 1.85208,-1.85209 1.8520833,1.8520833 0 0 1 1.85208,1.85209 1.8520833,1.8520833 0 0 1 -1.85208,1.85208 m 0.26458,-0.52917 h -0.52916 v -2.64583 h 0.52916 z"
     id="path1-6"
     style="fill:#ffffff;stroke-width:0.264583" /><text
     xml:space="preserve"
     style="font-size:3.175px;text-align:start;writing-mode:lr-tb;direction:ltr;text-anchor:start;fill:#ffffff;stroke:#ffffff;stroke-width:0.264583"
     x="80.504402"
     y="226.88948"
     id="text51"><tspan
       sodipodi:role="line"
       id="tspan51"
       style="font-style:normal;font-variant:normal;font-weight:normal;font-stretch:normal;font-family:Arial;-inkscape-font-specification:Arial;fill:#ffffff;stroke:#ffffff;stroke-width:0.264583"
       x="80.504402"
       y="226.88948">A</tspan></text><text
     xml:space="preserve"
     style="font-size:3.175px;text-align:start;writing-mode:lr-tb;direction:ltr;text-anchor:start;fill:#ffffff;stroke:#ffffff;stroke-width:0.264583"
     x="80.268295"
     y="240.22029"
     id="text52"><tspan
       sodipodi:role="line"
       id="tspan52"
       style="font-style:normal;font-variant:normal;font-weight:normal;font-stretch:normal;font-family:Arial;-inkscape-font-specification:Arial;fill:#ffffff;stroke:#ffffff;stroke-width:0.264583"
       x="80.268295"
       y="240.22029">M</tspan></text><circle
     style="fill:none;stroke:#ff00ff;stroke-width:0.264583"
     id="path52"
     cx="116.55516"
     cy="187.14656"
     r="8.5" /></svg>
